<svg height="512" viewBox="0 0 64 64" width="512" xmlns="http://www.w3.org/2000/svg"><path d="M54 35c0-1.7-1.8-3-4-3s-4 1.3-4 3v3l-4.9-2.1c1.2-1.1 2-2.5 2.5-4l2.7-1.4c1-.5 1.7-1.5 1.7-2.7V26c0-1.7-1.3-3-3-3h-.4l-.6.6V21h2v-3c0-6.2-4.1-11.7-10-13.4-.2-1.5-1.5-2.6-3-2.6h-2c-1.5 0-2.8 1.1-3 2.6-5.9 1.7-10 7.2-10 13.4v3h2v2.6l-.6-.6H19c-1.7 0-3 1.3-3 3v1.8c0 1.1.6 2.2 1.7 2.7l2.7 1.4c.5 1.5 1.3 2.9 2.5 4l-8.3 3.6c-4 1.8-6.6 5.7-6.6 10.1V62h50V32.9l-4 5.6zm-6 11.8v-9.2c1.3.5 2.7.5 4 0v3.6zM50 34c1.2 0 2 .6 2 1s-.8 1-2 1-2-.6-2-1 .8-1 2-1zm-4 8.7l-6.5 4.8c-.5.3-1.2.5-1.8.5h-3.4l.3-1.2c.1-.4.5-.8 1-.8H37c1.6 0 3.1-.8 4.1-2.1l3.2-4.5 1.8.8v2.5zm-13.3 3.6l-.7 2.6-.7-2.6c-.3-1.4-1.5-2.3-2.9-2.3H27c-1 0-1.9-.5-2.4-1.3l-3-4.2 3.1-1.4 2.9 1.6c2.7 1.5 5.9 1.5 8.6 0l2.9-1.6 3.1 1.4-3 4.2c-.6.8-1.5 1.3-2.4 1.3h-1.4c-1.2 0-2.4.9-2.7 2.3zm-3 1.7h-3.4c-.6 0-1.3-.2-1.8-.6l-8.7-6.3 3.9-1.7 3.2 4.5c.9 1.3 2.5 2.1 4.1 2.1h1.4c.5 0 .9.3 1 .8zm15.7-22.9c.4.1.6.5.6.9v1.8c0 .4-.2.7-.6.9l-1.4.7v-2.9zM20.2 19c.4-1.2 1.5-2 2.8-2h18c1.3 0 2.4.8 2.8 2zM28 6.7V13h2V5c0-.6.4-1 1-1h2c.6 0 1 .4 1 1v8h2V6.7c4.1 1.4 7.1 4.9 7.8 9.2-.8-.6-1.8-.9-2.8-.9H23c-1 0-2 .3-2.8.9.7-4.3 3.7-7.8 7.8-9.2zm-9.4 22c-.3-.2-.6-.5-.6-.9V26c0-.4.3-.8.6-.9l1.4 1.4v2.9zm3.4.6V21h20v8.3c0 2.6-1.4 4.9-3.6 6.1l-3 1.6c-2.1 1.1-4.6 1.1-6.7 0l-3-1.6a6.92 6.92 0 01-3.7-6.1zM10 49.5c0-3 1.5-5.7 3.9-7.4l9.5 6.9c.9.6 1.9 1 2.9 1H31v10h-3v-8h-7.2l-.8-3.2-2 .4.7 2.8H17v8h-7zM26 54v2h-7v-2zm-7 4h7v2h-7zm14 2V50h4.7c1.1 0 2.1-.3 2.9-1l5.4-3.9v4.4L38.5 60zm23-20.9V60H41l13-18v-.1z"/><path d="M54 58V44.7L45.1 58zm-2-2h-3.1l3.1-4.7z"/></svg>