<svg xmlns="http://www.w3.org/2000/svg" viewBox="0 0 480 480"><path d="M472 76h-88V12a8 8 0 00-8-8H104a8 8 0 00-8 8v112H8a8 8 0 00-8 8v328a8 8 0 0016 0V140h80v328a8 8 0 008 8h272a8 8 0 008-8V92h80v368a8 8 0 0016 0V84a8 8 0 00-8-8zM232 460h-32v-72h32v72zm48 0h-32v-72h32v72zm88 0h-72v-80a8 8 0 00-8-8h-96a8 8 0 00-8 8v80h-72V20h256v440z"/><path d="M184 36h-48a8 8 0 00-8 8v48a8 8 0 008 8h48a8 8 0 008-8V44a8 8 0 00-8-8zm-8 48h-32V52h32v32zm88-48h-48a8 8 0 00-8 8v48a8 8 0 008 8h48a8 8 0 008-8V44a8 8 0 00-8-8zm-8 48h-32V52h32v32zm88-48h-48a8 8 0 00-8 8v48a8 8 0 008 8h48a8 8 0 008-8V44a8 8 0 00-8-8zm-8 48h-32V52h32v32zm-152 32h-48a8 8 0 00-8 8v48a8 8 0 008 8h48a8 8 0 008-8v-48a8 8 0 00-8-8zm-8 48h-32v-32h32v32zm88-48h-48a8 8 0 00-8 8v48a8 8 0 008 8h48a8 8 0 008-8v-48a8 8 0 00-8-8zm-8 48h-32v-32h32v32zm88-48h-48a8 8 0 00-8 8v48a8 8 0 008 8h48a8 8 0 008-8v-48a8 8 0 00-8-8zm-8 48h-32v-32h32v32zm-152 32h-48a8 8 0 00-8 8v48a8 8 0 008 8h48a8 8 0 008-8v-48a8 8 0 00-8-8zm-8 48h-32v-32h32v32zm88-48h-48a8 8 0 00-8 8v48a8 8 0 008 8h48a8 8 0 008-8v-48a8 8 0 00-8-8zm-8 48h-32v-32h32v32zm88-48h-48a8 8 0 00-8 8v48a8 8 0 008 8h48a8 8 0 008-8v-48a8 8 0 00-8-8zm-8 48h-32v-32h32v32zm-152 32h-48a8 8 0 00-8 8v48a8 8 0 008 8h48a8 8 0 008-8v-48a8 8 0 00-8-8zm-8 48h-32v-32h32v32zm88-48h-48a8 8 0 00-8 8v48a8 8 0 008 8h48a8 8 0 008-8v-48a8 8 0 00-8-8zm-8 48h-32v-32h32v32zm88-48h-48a8 8 0 00-8 8v48a8 8 0 008 8h48a8 8 0 008-8v-48a8 8 0 00-8-8zm-8 48h-32v-32h32v32zM48 156h-8a8 8 0 00-8 8v8a8 8 0 008 8h8a8 8 0 008-8v-8a8 8 0 00-8-8zm32 0h-8a8 8 0 00-8 8v8a8 8 0 008 8h8a8 8 0 008-8v-8a8 8 0 00-8-8zm-32 32h-8a8 8 0 00-8 8v8a8 8 0 008 8h8a8 8 0 008-8v-8a8 8 0 00-8-8zm32 0h-8a8 8 0 00-8 8v8a8 8 0 008 8h8a8 8 0 008-8v-8a8 8 0 00-8-8zm-32 32h-8a8 8 0 00-8 8v8a8 8 0 008 8h8a8 8 0 008-8v-8a8 8 0 00-8-8zm32 0h-8a8 8 0 00-8 8v8a8 8 0 008 8h8a8 8 0 008-8v-8a8 8 0 00-8-8zm-32 32h-8a8 8 0 00-8 8v8a8 8 0 008 8h8a8 8 0 008-8v-8a8 8 0 00-8-8zm32 0h-8a8 8 0 00-8 8v8a8 8 0 008 8h8a8 8 0 008-8v-8a8 8 0 00-8-8zm-32 32h-8a8 8 0 00-8 8v8a8 8 0 008 8h8a8 8 0 008-8v-8a8 8 0 00-8-8zm32 0h-8a8 8 0 00-8 8v8a8 8 0 008 8h8a8 8 0 008-8v-8a8 8 0 00-8-8zm-32 32h-8a8 8 0 00-8 8v8a8 8 0 008 8h8a8 8 0 008-8v-8a8 8 0 00-8-8zm32 0h-8a8 8 0 00-8 8v8a8 8 0 008 8h8a8 8 0 008-8v-8a8 8 0 00-8-8zm-32 32h-8a8 8 0 00-8 8v8a8 8 0 008 8h8a8 8 0 008-8v-8a8 8 0 00-8-8zm32 0h-8a8 8 0 00-8 8v8a8 8 0 008 8h8a8 8 0 008-8v-8a8 8 0 00-8-8zm-32 32h-8a8 8 0 00-8 8v8a8 8 0 008 8h8a8 8 0 008-8v-8a8 8 0 00-8-8zm32 0h-8a8 8 0 00-8 8v8a8 8 0 008 8h8a8 8 0 008-8v-8a8 8 0 00-8-8zm-32 32h-8a8 8 0 00-8 8v8a8 8 0 008 8h8a8 8 0 008-8v-8a8 8 0 00-8-8zm32 0h-8a8 8 0 00-8 8v8a8 8 0 008 8h8a8 8 0 008-8v-8a8 8 0 00-8-8zm360-304h-32a8 8 0 00-8 8v32a8 8 0 008 8h32a8 8 0 008-8v-32a8 8 0 00-8-8zm-8 32h-16v-16h16v16zm8 32h-32a8 8 0 00-8 8v32a8 8 0 008 8h32a8 8 0 008-8v-32a8 8 0 00-8-8zm-8 32h-16v-16h16v16zm8 32h-32a8 8 0 00-8 8v32a8 8 0 008 8h32a8 8 0 008-8v-32a8 8 0 00-8-8zm-8 32h-16v-16h16v16zm8 32h-32a8 8 0 00-8 8v32a8 8 0 008 8h32a8 8 0 008-8v-32a8 8 0 00-8-8zm-8 32h-16v-16h16v16zm8 32h-32a8 8 0 00-8 8v32a8 8 0 008 8h32a8 8 0 008-8v-32a8 8 0 00-8-8zm-8 32h-16v-16h16v16z"/></svg>