<svg xmlns="http://www.w3.org/2000/svg" viewBox="0 0 496 496"><path d="M464 328v-43.672c0-118.264-94.176-217.072-209.936-220.248-58.968-1.576-114.528 20.08-156.68 61.096C55.216 166.192 32 221.176 32 280v48H0v45.232l30.184 13.2C99.28 416.672 172.56 432 248 432s148.72-15.328 217.816-45.56L496 373.232V328h-32zm-68.608-181C387.912 177.024 384 207.864 384 238.792V264h-32v-40.448c0-34.568 6.016-68.408 17.792-100.768 9.208 7.304 17.752 15.432 25.6 24.216zM253.624 80.08c8.864.24 17.576 1.152 26.128 2.568L264.64 264h-33.28L216.232 82.496c12.224-1.936 24.728-2.792 37.392-2.416zm-145.088 56.568c5.504-5.36 11.28-10.32 17.256-14.952 12.04 32.68 18.208 66.88 18.208 101.856V264h-32v-25.208c0-31.528-4.048-62.928-11.824-93.464 2.704-2.952 5.464-5.864 8.36-8.68zM480 362.768l-20.592 9.016C392.344 401.128 321.216 416 248 416s-144.344-14.872-211.408-44.216L16 362.768V344h384v-16H48v-48c0-43.616 13.824-84.936 39.36-119.176 5.624 25.6 8.64 51.736 8.64 77.968V280h64v-56.448c0-38.336-7.04-75.792-20.752-111.48a196.999 196.999 0 0161.2-26.424L216.64 280h62.72l16.168-194.064c21.888 5.544 42.4 14.824 60.848 27.136-13.464 35.4-20.376 72.512-20.376 110.48V280h64v-41.208c0-25.536 2.848-51.008 8.192-75.984C433.144 196.944 448 239.088 448 284.328V328h-32v16h64v18.768z"/></svg>