<svg xmlns="http://www.w3.org/2000/svg" viewBox="0 0 512 512"><path d="M467 92h-15V15c0-8.284-6.716-15-15-15H227c-8.284 0-15 6.716-15 15v77h-32.58c-6.192-17.458-22.865-30-42.42-30h-32c-19.555 0-36.228 12.542-42.42 30H45c-24.813 0-45 20.187-45 45v300c0 24.813 20.187 45 45 45h17.58c6.192 17.458 22.865 30 42.42 30h32c19.555 0 36.228-12.542 42.42-30H467c24.813 0 45-20.187 45-45V137c0-24.813-20.187-45-45-45zM60 452H45c-8.271 0-15-6.729-15-15V137c0-8.271 6.729-15 15-15h15v330zm92 15c0 8.271-6.729 15-15 15h-32c-8.271 0-15-6.729-15-15V107c0-8.271 6.729-15 15-15h32c8.271 0 15 6.729 15 15v360zm90-437h180v62H242V30zm240 407c0 8.271-6.729 15-15 15H182V122h285c8.271 0 15 6.729 15 15v300z"/><path d="M257 392h-30c-8.284 0-15 6.716-15 15s6.716 15 15 15h30c8.284 0 15-6.716 15-15s-6.716-15-15-15zm90 0h-30c-8.284 0-15 6.716-15 15s6.716 15 15 15h30c8.284 0 15-6.716 15-15s-6.716-15-15-15zm90 0h-30c-8.284 0-15 6.716-15 15s6.716 15 15 15h30c8.284 0 15-6.716 15-15s-6.716-15-15-15zm-180-60h-30c-8.284 0-15 6.716-15 15s6.716 15 15 15h30c8.284 0 15-6.716 15-15s-6.716-15-15-15zm90 0h-30c-8.284 0-15 6.716-15 15s6.716 15 15 15h30c8.284 0 15-6.716 15-15s-6.716-15-15-15zm90 0h-30c-8.284 0-15 6.716-15 15s6.716 15 15 15h30c8.284 0 15-6.716 15-15s-6.716-15-15-15zm-180-60h-30c-8.284 0-15 6.716-15 15s6.716 15 15 15h30c8.284 0 15-6.716 15-15s-6.716-15-15-15zm90 0h-30c-8.284 0-15 6.716-15 15s6.716 15 15 15h30c8.284 0 15-6.716 15-15s-6.716-15-15-15zm90 0h-30c-8.284 0-15 6.716-15 15s6.716 15 15 15h30c8.284 0 15-6.716 15-15s-6.716-15-15-15zm0-120H227c-8.284 0-15 6.716-15 15v60c0 8.284 6.716 15 15 15h210c8.284 0 15-6.716 15-15v-60c0-8.284-6.716-15-15-15zm-15 60H242v-30h180v30z"/></svg>