<svg version="1.1" id="Layer_5" xmlns="http://www.w3.org/2000/svg" x="0" y="0" viewBox="0 0 627 512" xml:space="preserve"><style>.st0{fill:none;stroke:#000;stroke-width:8;stroke-miterlimit:10}</style><path d="M383.8 384.8c20.8-16.5 32-35.9 32.6-36.8l4.2-7.3-7.6-3.8c-26.9-13.4-43.6-40.4-43.6-70.4V134.9c0-33.9-13.2-65.7-37.2-89.7-24-24-55.9-37.1-89.9-37.1h-2.1c-32.4 0-62.8 12.6-85.7 35.5l-13.7 13.7c-26.5 11.3-43.5 37-43.5 65.9v143.3c0 30.1-16.7 57.1-43.6 70.5l-7.6 3.8 4.2 7.3c.5 1 11.8 20.3 32.6 36.8C42.8 407 17.4 449.2 17.4 496v8h432v-8c0-46.8-25.3-89-65.6-111.2zM240.3 24h2.1c29.7 0 57.6 11.5 78.6 32.5 21 20.9 32.5 48.7 32.5 78.3v131.6c0 33.1 16.9 63.1 44.6 80.4-5.5 7.6-16 20.3-30.7 30.3l-79-32.3c-9.1-3.7-14.9-12.4-14.9-22.2v-5.7c39.4-27.2 64-72.3 64-122v-50l-91.7-9.2c-41.1-4.1-76.3-31.2-91-69.6L166 54.9c19.8-20 46.2-30.9 74.3-30.9zm57.1 344c0 13.2-12.6 24-28 24-9.3 0-17.6-3.9-22.7-10 13.1-3.8 24-13 29.9-25.3 1.8 1.1 3.7 2.1 5.7 2.9l14.8 6.1c.1.7.3 1.5.3 2.3zm-127.6-2.4l14.8-6.1c2-.8 3.9-1.8 5.7-2.9 5.9 12.3 16.7 21.5 29.9 25.3-5.1 6.2-13.4 10-22.7 10-15.4 0-28-10.8-28-24-.1-.7.2-1.5.3-2.3zm63.6-46.1c-52.8-18.8-88-68.5-88-124.7v-16.5c0-13.8 6.9-26.4 18.5-33.7l22.3-14.2c16.9 11.5 36.8 19 57.9 21.1l77.3 7.7v35.6c0 56.2-35.2 106-88 124.7zm-2.5 16.1l2.5.8 2.5-.8c7.6-2.5 14.8-5.6 21.8-9.2.6 6.7 2.8 12.9 6.4 18.3-3.8 13.6-16.2 23.3-30.7 23.3s-26.8-9.7-30.7-23.3c3.6-5.4 5.8-11.7 6.4-18.3 7 3.6 14.2 6.7 21.8 9.2zm2.5 55.3c2.2 2.9 4.8 5.4 7.7 7.6L256 488h-45.1l14.8-89.5c2.9-2.2 5.5-4.7 7.7-7.6zM68.9 346.8c27.7-17.2 44.6-47.3 44.6-80.4V123.1C113.4 103 124 84.9 141 75c7.2 17.4 18.2 32.7 31.8 44.9L155.3 131c-16.2 10.3-25.9 28-25.9 47.3v16.5c0 49.6 24.6 94.8 64 122v5.7c0 9.8-5.8 18.5-14.9 22.2l-79 32.3c-14.6-9.9-25.1-22.6-30.6-30.2zm33.6 46.3l51.2-20.9c2.3 20.1 21 35.8 43.8 35.8 3.7 0 7.2-.5 10.7-1.3L194.6 488h-81.2v-48h-16v48H33.7c3-42 29.3-78.7 68.8-94.9zM369.4 488v-48h-16v48h-81.2l-13.5-81.3c3.5.8 7 1.3 10.7 1.3 22.7 0 41.4-15.7 43.8-35.8l51.2 20.9c39.5 16.1 65.8 52.8 68.8 94.9h-63.8z"/><path d="M320.2 129.3l15.8-2.6c-1-5.9-2.5-11.7-4.5-17.3l-15.1 5.3c1.7 4.7 3 9.7 3.8 14.6zM309.7 100l13.8-8c-18.6-32.1-53.1-52-90.1-52v16c31.4 0 60.6 16.9 76.3 44z"/><circle class="st0" cx="195.1" cy="187.6" r="22"/><circle class="st0" cx="270.5" cy="187.6" r="22"/><path class="st0" d="M217 187.6h31.5"/><path d="M502.6 164.2h-27.9v-50.5h-48.5v50.5h-27.9V44.8h27.9v49.9h48.5V44.8h27.9v119.4zM550 120v44.2h-27.7V44.8h38.8c8.6 0 16 .9 22.1 2.7 6.1 1.8 11.1 4.2 14.9 7.4 3.9 3.2 6.7 6.9 8.4 11.2 1.7 4.3 2.6 9 2.6 14.1 0 3.9-.5 7.5-1.6 11-1 3.4-2.6 6.6-4.6 9.5-2 2.9-4.6 5.5-7.5 7.8-3 2.3-6.4 4.2-10.3 5.7 1.9.9 3.6 2.1 5.2 3.4 1.6 1.4 3 3 4.2 5l25.4 41.6h-25.1c-4.6 0-8-1.7-10-5.2L565 124.3c-.9-1.5-1.9-2.6-3.1-3.3-1.2-.7-2.8-1-5-1H550zm0-19.1h11.1c3.8 0 7-.5 9.6-1.4 2.6-1 4.8-2.3 6.5-4 1.7-1.7 2.9-3.7 3.7-5.9.8-2.3 1.1-4.7 1.1-7.3 0-5.2-1.7-9.3-5.1-12.3-3.4-3-8.7-4.4-15.9-4.4h-11v35.3z"/></svg>