<svg xmlns="http://www.w3.org/2000/svg" viewBox="0 0 512 512"><path d="M486.6 99.4l-56-80c-1.5-2.1-3.9-3.4-6.6-3.4H88c-2.6 0-5.1 1.3-6.6 3.4l-56 80c-.9 1.3-1.4 2.9-1.4 4.6v48c0 19 13.4 35.4 32 39.2V472c0 13.3 10.7 24 24 24h352c13.3 0 24-10.7 24-24V191.2c18.6-3.8 32-20.2 32-39.2v-48c0-1.6-.5-3.2-1.4-4.6zM92.2 32h327.7l44.8 64H47.4l44.8-64zM96 175.8c12.9 17.7 37.7 21.5 55.4 8.6 3.3-2.4 6.2-5.3 8.6-8.6 12.9 17.7 37.7 21.5 55.4 8.6 3.3-2.4 6.2-5.3 8.6-8.6 12.9 17.7 37.7 21.5 55.4 8.6 3.3-2.4 6.2-5.3 8.6-8.6 12.9 17.7 37.7 21.5 55.4 8.6 3.3-2.4 6.2-5.3 8.6-8.6 12.9 17.7 37.7 21.5 55.4 8.6 3.3-2.4 6.2-5.3 8.6-8.6 5.8 7.9 14.4 13.4 24 15.4V400H248v-20.2c0-15.2-8.5-29-22.1-35.8L200 331.1v-11.3c10-7.5 16-19.3 16-31.8v-14.1l7.2-14.3c.6-1.1.8-2.3.8-3.6v-8c0-13.3-10.7-24-24-24h-72c-4.4 0-8 3.6-8 8 0 2.1.8 4.2 2.3 5.7l11.9 11.9-5.4 10.8c-1.5 3.1-.9 6.8 1.5 9.2l5.7 5.7V288c0 12.5 6 24.3 16 31.8v11.3L126.1 344c-13.6 6.7-22.2 20.6-22.1 35.8V400H72V191.2c9.6-2 18.2-7.5 24-15.4zM400 448v32H112v-32h288zM72 432v-16h368v16H72zm77.7-189.7l-2.3-2.3H200c4.4 0 8 3.6 8 8v6.1l-3.1 6.2-16.5-11c-3.2-2.1-7.4-1.7-10.1 1L164.7 264h-17.4l-1.6-1.6 5.4-10.8c1.6-3.1 1-6.8-1.4-9.3zM168 280c2.1 0 4.2-.8 5.7-2.3l11.4-11.4 15 10V288c0 13.3-10.7 24-24 24s-24-10.7-24-24v-8H168zm25.6 65.7l4.3 2.1-6.6 8.1-4-4 6.3-6.2zM176 328c2.7 0 5.4-.3 8-.8v5.5l-8 8-8-8v-5.5c2.6.5 5.3.8 8 .8zm-17.6 17.7l6.3 6.3-4 4-6.5-8.1 4.2-2.2zm-18.9 9.5l14.3 17.8c1.4 1.8 3.5 2.9 5.8 3h.4c2.1 0 4.2-.8 5.7-2.3l10.3-10.3 10.3 10.3c1.5 1.5 3.5 2.3 5.7 2.3h.4c2.3-.1 4.4-1.2 5.8-3l14.3-17.8 6.2 3.1c8.1 4 13.3 12.4 13.3 21.5V400H120v-20.2c0-9.1 5.1-17.4 13.3-21.5l6.2-3.1zM72 472v-24h24v32H80c-4.4 0-8-3.6-8-8zm360 8h-16v-32h24v24c0 4.4-3.6 8-8 8zm16-304c-13.3 0-24-10.7-24-24h-16c0 13.3-10.7 24-24 24s-24-10.7-24-24h-16c0 13.3-10.7 24-24 24s-24-10.7-24-24h-16c0 13.3-10.7 24-24 24s-24-10.7-24-24h-16c0 13.3-10.7 24-24 24s-24-10.7-24-24h-16c0 13.3-10.7 24-24 24s-24-10.7-24-24H88c0 13.3-10.7 24-24 24s-24-10.7-24-24v-40h432v40c0 13.3-10.7 24-24 24z"/><path d="M409.4 272.9H401c-1-3.6-4.2-6.1-7.9-6.1h-9v-22c0-.8-.4-1.6-1.1-2l-63.4-36.6c-.7-.4-1.6-.4-2.4 0l-63.4 36.6c-.7.4-1.2 1.2-1.2 2v73.3c0 .8.5 1.6 1.2 2l63.4 36.6c.4.2.8.3 1.2.3.4 0 .8-.1 1.2-.3l33.4-19.3v13.9c0 5.5 4.5 10 10 10h46.4c5.6.1 10.1-4.4 10.2-10v-68.4c0-5.4-4.6-9.9-10.2-10zm-16.3-1.3c1.9 0 3.4 1.5 3.4 3.4h0v.2c0 1.9-1.5 3.4-3.4 3.4 0 0 0 0 0 0h-13.8c-1.9 0-3.4-1.5-3.4-3.4h0v-.2c0-1.9 1.5-3.4 3.4-3.4 0 0 0 0 0 0h13.8zM318.4 211l26.4 15.2-58.8 33.9-26.4-15.2 58.8-33.9zm-2.3 139.7l-58.8-33.9V249l58.8 33.9v67.8zm2.3-71.9l-27.6-15.9 58.7-33.9 27.6 15.9-58.7 33.9zm34.6 4.4v48.9l-32.1 18.6v-67.8l58.5-33.9v17.9h.1c-3.7 0-6.9 2.5-7.9 6.1h-8.4c-5.7 0-10.3 4.5-10.2 10.2zm61.8 68.3c0 2.9-2.4 5.3-5.4 5.3H363c-2.9 0-5.3-2.3-5.4-5.2v-68.4c0-3 2.4-5.4 5.4-5.5 0 0 0 0 0 0h8.5c1 3.4 4.2 5.8 7.8 5.7H393c3.6 0 6.8-2.3 7.8-5.7h8.5c3 0 5.4 2.5 5.4 5.5v68.3z" stroke="#000" stroke-width="5" stroke-miterlimit="10"/><path d="M365.8 307.1h2.5c1.3 0 2.4-1.1 2.4-2.4 0-1.3-1.1-2.4-2.4-2.4h-.1v-6.4h6.5c.3 1 1.2 1.6 2.3 1.6 1.3 0 2.4-1.1 2.4-2.4v-1.6c0-1.3-1.1-2.4-2.4-2.4h-11.1c-1.3 0-2.4 1.1-2.3 2.4v11.1c-.2 1.4.9 2.5 2.2 2.5zm0 21.6H377c1.3 0 2.4-1.1 2.4-2.4v-11.2c0-1.3-1.1-2.4-2.4-2.4h-11.2c-1.3 0-2.4 1.1-2.4 2.4v11.2c0 1.4 1.1 2.4 2.4 2.4zm2.4-11.1h6.4v6.4h-6.4v-6.4zm.1 28l-.1-6.4h6.4c0 1.3 1.1 2.4 2.4 2.3 1.3 0 2.3-1.1 2.3-2.3v-2.3c0-1.3-1.1-2.4-2.4-2.5h-11.1c-1.3 0-2.4 1.1-2.3 2.5V348c0 1.3 1 2.3 2.3 2.3h2.6c1.3 0 2.4-1.1 2.4-2.4s-1.2-2.3-2.5-2.3z"/><path d="M382.4 294.1l-6.9 6.9-2.1-2.1c-.9-.9-2.4-.9-3.3 0s-.9 2.4 0 3.3l3.8 3.8c.9.9 2.4.9 3.3 0l8.6-8.6c.9-.9.9-2.4 0-3.3s-2.5-.9-3.4 0zm0 43.7l-6.9 6.9-2.1-2.1c-.9-.9-2.4-.9-3.3 0-.9.9-.9 2.4 0 3.3l3.8 3.8c.9.9 2.4.9 3.3 0l8.6-8.6c.9-.9.9-2.4 0-3.3s-2.5-.9-3.4 0zm24.3-40.8h-14.9c-1.3 0-2.4 1.1-2.4 2.4s1.1 2.4 2.4 2.4h14.9c1.3 0 2.4-1.1 2.4-2.4s-1.1-2.4-2.4-2.4zm0 21.6h-14.9c-1.3 0-2.4 1.1-2.4 2.4s1.1 2.4 2.4 2.4h14.9c1.3 0 2.4-1.1 2.4-2.4s-1.1-2.4-2.4-2.4zm0 21.6h-14.9c-1.3 0-2.4 1.1-2.4 2.4s1.1 2.4 2.4 2.4h14.9c1.3 0 2.4-1.1 2.4-2.4s-1.1-2.4-2.4-2.4z"/></svg>